# xmcd
# 
# Track frame offsets:
#     150
#     19030
#     52837
#     74672
# 
# Disc length: 1198
# 
# Revision: 0
# Processed by: cddbd v1.5.2PL0 Copyright (c) Steve Scherf et al.
# Submitted via: fre:ac v1.1beta1pre3
# 
DISCID=2e04ac04
DTITLE=The Beloved - Time After Time
DYEAR=1990
DGENRE=
TTITLE0=Time After Time (7" Mix)
TTITLE1=Time After Time (Ross and Demelza)
TTITLE2=Time After Time (Through The Round Window)
TTITLE3=Time After Time (Three Men In A Tub)
EXTD=EastWest ‎– 9031-71470-2, EastWest ‎– YZ482CD
EXTT0=
EXTT1=
EXTT2=
EXTT3=On this edition, the duration of track 4 is printed as 3:25, but plays 3:22. There is another EU release with the same inserts where the duration of track 4 is printed on the disc as 4:25, but plays 4:23.
PLAYORDER=
